<svg width="80" height="80" viewBox="0 0 80 80" fill="none" xmlns="http://www.w3.org/2000/svg">
    <path fill-rule="evenodd" clip-rule="evenodd"
        d="M78.8211 78.8357C79.5492 78.1113 79.9999 77.1083 79.9999 76C79.9999 73.7909 78.2091 72 75.9999 72H71.9L78.8211 78.8357ZM59.75 60L69.9999 60C75.5228 60 79.9999 55.5228 79.9999 50L79.9999 10C79.9999 4.47715 75.5228 0 69.9999 0L9.99994 0C6.99502 0 4.29965 1.32539 2.46655 3.42346L6.75569 7.65967C7.48224 6.65425 8.66469 6 9.99994 6L69.9999 6C72.2091 6 73.9999 7.79086 73.9999 10L73.9999 50C73.9999 52.2091 72.2091 54 69.9999 54L53.6751 54L59.75 60ZM48.6126 49H66.9999C68.1045 49 68.9999 48.1046 68.9999 47L68.9999 13C68.9999 11.8954 68.1045 11 66.9999 11L12.9999 11C12.2291 11 11.5601 11.4361 11.2262 12.075L48.6126 49Z"
        fill="#00D9C5" />
</svg>