<svg width="78" height="80" viewBox="0 0 78 80" fill="none" xmlns="http://www.w3.org/2000/svg">
    <path fill-rule="evenodd" clip-rule="evenodd"
        d="M32.0489 34.6161C32.0917 34.5752 32.134 34.534 32.1757 34.4922C34.08 32.5879 35.0322 29.6436 35.0322 25.6592L35.0322 11.4648C35.0322 7.50977 34.08 4.59473 32.1757 2.71973C30.3007 0.81543 27.415 -0.136719 23.5185 -0.136719L9.10445 -0.136719C5.20796 -0.136719 2.30757 0.81543 0.403274 2.71973C0.295928 2.82707 0.191655 2.93783 0.0904541 3.05199L6.29379 9.17877C6.36779 9.04556 6.45507 8.92867 6.55562 8.82812C6.93648 8.44727 7.53706 8.25684 8.35738 8.25684L24.2216 8.25684C25.0712 8.25684 25.6865 8.44727 26.0673 8.82812C26.4482 9.20898 26.6386 9.82422 26.6386 10.6738L26.6386 26.4941C26.6386 27.3145 26.4482 27.9297 26.0673 28.3398C26.0061 28.4011 25.9388 28.4574 25.8654 28.5088L32.0489 34.6161ZM52.3488 54.6654L42.8195 45.2537C42.9315 44.8469 43.2215 44.6436 43.6894 44.6436H51.8632C52.5371 44.6436 52.874 44.9951 52.874 45.6982V53.6523C52.874 54.1803 52.6989 54.518 52.3488 54.6654ZM63.8254 66.0003L54.2597 56.5527C54.385 56.1719 54.6848 55.9814 55.1591 55.9814H63.333C64.0068 55.9814 64.3437 56.333 64.3437 57.0361V64.9902C64.3437 65.5147 64.1709 65.8514 63.8254 66.0003ZM75.2333 77.2675L65.5782 67.7315C65.7292 67.4567 66.0062 67.3193 66.4091 67.3193H74.583C75.2861 67.3193 75.6376 67.6709 75.6376 68.374V76.3281C75.6376 76.7816 75.5029 77.0948 75.2333 77.2675ZM5.97165 80H26.6476C25.6892 80.1595 24.6462 80.2393 23.5185 80.2393H9.10445C7.97675 80.2393 6.93248 80.1595 5.97165 80ZM20.8516 23.5569C21.194 23.4122 21.3652 23.0729 21.3652 22.5391V14.585C21.3652 13.8525 21.0429 13.4863 20.3984 13.4863L12.1806 13.4863C11.7092 13.4863 11.4184 13.7013 11.3082 14.1313L20.8516 23.5569ZM43.3378 34.4922C45.2421 36.3672 48.1425 37.3047 52.039 37.3047L66.4531 37.3047C70.3496 37.3047 73.2353 36.3672 75.1103 34.4922C77.0146 32.5879 77.9668 29.6436 77.9668 25.6592V11.4648C77.9668 7.50977 77.0146 4.59473 75.1103 2.71973C73.2353 0.81543 70.3496 -0.136719 66.4531 -0.136719L52.039 -0.136719C48.1425 -0.136719 45.2421 0.81543 43.3378 2.71973C41.4628 4.59473 40.5253 7.50977 40.5253 11.4648L40.5253 25.6592C40.5253 29.6436 41.4628 32.5879 43.3378 34.4922ZM67.2001 28.9111L51.3359 28.9111C50.4863 28.9111 49.871 28.7207 49.4902 28.3398C49.1093 27.9297 48.9189 27.3145 48.9189 26.4941L48.9189 10.6738C48.9189 9.82422 49.1093 9.20898 49.4902 8.82812C49.871 8.44727 50.4863 8.25684 51.3359 8.25684L67.2001 8.25684C68.0205 8.25684 68.621 8.44727 69.0019 8.82812C69.3828 9.20898 69.5732 9.82422 69.5732 10.6738V26.4941C69.5732 27.3145 69.3828 27.9297 69.0019 28.3398C68.621 28.7207 68.0205 28.9111 67.2001 28.9111ZM54.2802 22.5391C54.2802 23.2715 54.6025 23.6377 55.247 23.6377L63.4209 23.6377C64.0947 23.6377 64.4316 23.2715 64.4316 22.5391V14.585C64.4316 13.8525 64.0947 13.4863 63.4209 13.4863L55.247 13.4863C54.6025 13.4863 54.2802 13.8525 54.2802 14.585L54.2802 22.5391ZM65.4423 53.6523C65.4423 54.3848 65.7646 54.751 66.4091 54.751H74.583C75.2861 54.751 75.6376 54.3848 75.6376 53.6523V45.6982C75.6376 44.9951 75.2861 44.6436 74.583 44.6436H66.4091C65.7646 44.6436 65.4423 44.9951 65.4423 45.6982V53.6523Z"
        fill="#00D9C5" />
</svg>